<svg width="39" height="39" viewBox="0 0 39 39" fill="none" xmlns="http://www.w3.org/2000/svg">
    <circle cx="19.3147" cy="19.5002" r="18.8147" fill="#006AB3"/>
    <g clip-path="url(#clip0)">
        <path d="M14.391 7.5C15.2997 7.5 16.1713 7.85246 16.8138 8.47983C17.4564 9.10721 17.8174 9.95812 17.8174 10.8454V29.5H14.391C13.4823 29.5 12.6107 29.1475 11.9682 28.5202C11.3256 27.8928 10.9646 27.0419 10.9646 26.1546V10.8454C10.9646 9.95812 11.3256 9.10721 11.9682 8.47983C12.6107 7.85246 13.4823 7.5 14.391 7.5V7.5Z" fill="white"/>
        <path d="M21.9407 22.8093H26.2382C27.1469 22.8093 28.0184 23.1618 28.661 23.7892C29.3036 24.4165 29.6646 25.2674 29.6646 26.1547C29.6646 27.0419 29.3036 27.8928 28.661 28.5202C28.0184 29.1476 27.1469 29.5 26.2382 29.5H18.5143V26.1547C18.5143 25.2674 18.8753 24.4165 19.5179 23.7892C20.1604 23.1618 21.0319 22.8093 21.9407 22.8093Z" fill="white"/>
    </g>
    <defs>
        <clipPath id="clip0">
            <rect width="18.7" height="22" fill="white" transform="translate(10.9646 7.5)"/>
        </clipPath>
    </defs>
</svg>
