<?xml version="1.0" encoding="utf-8"?>
<!-- Generator: Adobe Illustrator 25.4.1, SVG Export Plug-In . SVG Version: 6.00 Build 0)  -->
<svg version="1.1" id="Lager_1" xmlns="http://www.w3.org/2000/svg" xmlns:xlink="http://www.w3.org/1999/xlink" x="0px" y="0px"
	 viewBox="0 0 181 167.6" style="enable-background:new 0 0 181 167.6;" xml:space="preserve">
<style type="text/css">
	.st0{fill-rule:evenodd;clip-rule:evenodd;fill:#005EA1;}
	.st1{fill:#FFFFFF;}
</style>
<rect x="6.5" y="0.1" class="st0" width="167.8" height="167.8"/>
<path class="st1" d="M76.1,36.1h7.2c0,4.8,0,9.6,0,14.3l9.1-14.3h8.4L89.1,53.8L101.8,72h-8.9L83.3,58c0,4.6,0,9.5,0,14.1h-7.2V36.1
	z"/>
<path class="st1" d="M86.8,120H76.1V84h10.7C110.7,84,110.7,120,86.8,120z M83.3,91.2v21.6h3.5c14,0,14-21.6,0-21.6H83.3z"/>
<rect x="89.2" y="112.9" transform="matrix(-1.836970e-16 1 -1 -1.836970e-16 221.2791 40.4342)" class="st1" width="2.4" height="36"/>
<path class="st1" d="M162.3,153.5v-139v-2.4h-2.4h-139h-2.4v2.4v139v2.4h2.4h139h2.4h0L162.3,153.5L162.3,153.5z M20.9,153.5v-139
	h139v139H20.9z"/>
</svg>
